<?xml version="1.0" encoding="UTF-8" standalone="no"?>
<!DOCTYPE svg PUBLIC "-//W3C//DTD SVG 1.1//EN" "http://www.w3.org/Graphics/SVG/1.1/DTD/svg11.dtd">
<svg width="100%" height="100%" viewBox="0 0 1044 593" version="1.1" xmlns="http://www.w3.org/2000/svg" xmlns:xlink="http://www.w3.org/1999/xlink" xml:space="preserve" xmlns:serif="http://www.serif.com/" style="fill-rule:evenodd;clip-rule:evenodd;stroke-linejoin:round;stroke-miterlimit:2;">
    <g id="Layer_2">
        <g id="Layer_1-2">
            <path d="M588.67,296.36C588.67,460.03 456.89,592.71 294.34,592.71C131.79,592.71 0,460 0,296.36C0,132.72 131.78,0 294.34,0C456.9,0 588.67,132.69 588.67,296.36" style="fill:rgb(13,17,99);fill-rule:nonzero;"/>
            <path d="M911.56,296.36C911.56,450.42 845.67,575.36 764.39,575.36C683.11,575.36 617.22,450.42 617.22,296.36C617.22,142.3 683.1,17.36 764.38,17.36C845.66,17.36 911.55,142.26 911.55,296.36" style="fill:rgb(13,17,99);fill-rule:nonzero;"/>
            <path d="M1043.63,296.36C1043.63,434.36 1020.46,546.3 991.87,546.3C963.28,546.3 940.12,434.39 940.12,296.36C940.12,158.33 963.29,46.42 991.87,46.42C1020.45,46.42 1043.63,158.32 1043.63,296.36" style="fill:rgb(13,17,99);fill-rule:nonzero;"/>
        </g>
    </g>
</svg>
