<?xml version="1.0" encoding="UTF-8" standalone="no"?>
<!DOCTYPE svg PUBLIC "-//W3C//DTD SVG 1.1//EN" "http://www.w3.org/Graphics/SVG/1.1/DTD/svg11.dtd">
<svg width="100%" height="100%" viewBox="0 0 965 807" version="1.1" xmlns="http://www.w3.org/2000/svg" xmlns:xlink="http://www.w3.org/1999/xlink" xml:space="preserve" xmlns:serif="http://www.serif.com/" style="fill-rule:evenodd;clip-rule:evenodd;stroke-linejoin:round;stroke-miterlimit:2;">
    <g transform="matrix(1,0,0,1,-117.645,-46.9986)">
        <path d="M327.059,550.687L343.532,560.153C345.536,561.305 347.807,561.911 350.118,561.911C355.638,561.911 360.603,558.452 362.516,553.274C363.058,551.807 363.336,550.256 363.336,548.693C363.336,541.715 357.81,535.878 350.843,535.495L330.895,534.398L270.804,516.209L261.116,479.936L235.783,494.165L253.201,535.405L327.059,550.687Z" style="fill:rgb(255,184,184);fill-rule:nonzero;"/>
    </g>
    <g transform="matrix(1,0,0,1,-117.645,-46.9986)">
        <path d="M248.52,362.419C244.709,366.739 245.397,371.935 248.172,376.154C250.948,380.372 255.566,383.882 259.608,387.605C262.205,389.996 264.607,392.533 265.77,395.411C267.075,398.408 266.533,401.905 264.381,404.366C261.734,407.497 256.804,409.617 251.994,411.435C238.238,416.596 224.045,420.504 209.586,423.113C221.767,408.88 227.864,392.852 226.971,377.412C226.783,374.172 226.302,370.902 227.433,367.654C229.009,363.703 232.393,360.742 236.518,359.705C241.36,358.315 247.737,359.69 248.479,362.862" style="fill:rgb(47,46,65);fill-rule:nonzero;"/>
    </g>
    <path d="M26.523,772.15L43.953,772.908L78.355,614.001L48.5,615.284L26.523,772.15Z" style="fill:rgb(255,184,184);fill-rule:nonzero;"/>
    <path d="M200.819,738.049L186.42,745.627L96.355,612.001L125.038,599.37L200.819,738.049Z" style="fill:rgb(255,184,184);fill-rule:nonzero;"/>
    <circle cx="100.427" cy="337.87" r="27.57" style="fill:rgb(255,184,184);"/>
    <g transform="matrix(1,0,0,1,-117.645,-46.9986)">
        <path d="M204.035,399.324C204.035,399.324 194.183,419.784 180.543,419.027C180.543,419.027 154.777,408.417 146.442,437.214L137.348,459.948L257.839,480.409C257.839,480.409 251.019,438.729 235.105,437.972C235.105,437.972 216.918,436.456 219.191,429.636C221.464,422.816 229.8,406.902 229.8,406.902L204.035,399.324Z" style="fill:rgb(255,184,184);fill-rule:nonzero;"/>
    </g>
    <g transform="matrix(1,0,0,1,-117.645,-46.9986)">
        <path d="M244.199,503.901L226.011,543.307L241,607L314,744C314,744 280.381,774.162 272,779C264.73,783.196 204.21,669.445 202,646C201.271,638.262 188,795 188,795C188,795 137.97,786.744 124,784C124,784 134.065,712.709 140,646C144.575,594.579 140.415,547.978 166.144,525.877L163.871,481.924L224.496,479.651L244.199,503.901Z" style="fill:rgb(47,46,65);fill-rule:nonzero;"/>
    </g>
    <g transform="matrix(1,0,0,1,-117.645,-46.9986)">
        <path d="M150.037,848.377L177.862,852.417C182.307,854.073 187.342,852.06 189.42,847.797C191.093,844.365 190.48,840.235 187.882,837.438L176.072,824.718L167.571,806.377C162.488,801.184 159.013,803.021 157.07,811.552L143.481,807.284L139.918,831.234C138.824,838.593 143.064,845.778 150.037,848.377Z" style="fill:rgb(47,46,65);fill-rule:nonzero;"/>
    </g>
    <g transform="matrix(1,0,0,1,-117.645,-46.9986)">
        <path d="M308.639,823.316L336.756,823.218C341.396,824.202 346.08,821.471 347.509,816.948C348.658,813.307 347.444,809.313 344.463,806.928L330.909,796.085L319.803,779.193C314.01,774.805 310.843,777.133 310.177,785.857L296.108,783.636L296.108,807.849C296.108,815.29 301.36,821.772 308.639,823.316Z" style="fill:rgb(47,46,65);fill-rule:nonzero;"/>
    </g>
    <g transform="matrix(1,0,0,1,-117.645,-46.9986)">
        <path d="M204.146,342.488C199.463,340.442 193.891,341.244 189.369,343.627C184.848,346.01 181.236,349.809 178.074,353.825C167.189,367.717 160.839,384.629 159.891,402.252C159.643,407.07 159.876,412.163 162.384,416.284C165.141,420.813 170.186,423.412 175.184,425.182C191.932,431.018 210.327,430.006 226.335,422.368C217.915,415.541 210.124,407.972 203.055,399.753C201.731,398.213 200.346,396.235 201.02,394.318C201.444,393.386 202.101,392.579 202.929,391.974L219.161,377.878L218.752,383.581C225.338,383.196 231.09,378.908 233.34,372.707C232.558,374.287 234.052,376.227 235.779,376.582C237.505,376.937 239.253,376.226 240.873,375.529C244.8,373.839 249.066,371.826 250.809,367.922C251.917,365.141 251.833,362.024 250.579,359.307C249.318,356.622 247.52,354.225 245.296,352.263C234.212,342.031 218.627,338.156 204.042,342.007" style="fill:rgb(47,46,65);fill-rule:nonzero;"/>
    </g>
    <g transform="matrix(1,0,0,1,-117.645,-46.9986)">
        <path d="M198.639,546.742L210.744,561.385C213.254,564.421 216.993,566.181 220.931,566.181C224.771,566.181 228.425,564.508 230.935,561.603C233.008,559.203 234.149,556.135 234.149,552.963C234.149,547.726 231.037,542.962 226.241,540.859L207.945,532.834L158.052,494.721L161.705,457.354L132.99,461.793L134.835,506.522L198.639,546.742Z" style="fill:rgb(255,184,184);fill-rule:nonzero;"/>
    </g>
    <g transform="matrix(1,0,0,1,-117.645,-46.9986)">
        <path d="M273.753,513.752C273.753,513.752 261.954,470.537 255.728,470.547C249.503,470.557 241.167,469.8 241.167,469.8C241.167,469.8 231.316,441.003 180.543,450.097C129.77,459.19 151.746,441.761 137.348,448.581C122.949,455.401 117.645,503.143 117.645,503.143C117.645,503.143 195.699,477.378 212.371,491.776C221.945,500.149 232.357,507.514 243.441,513.752C254.525,519.991 235.863,532.697 273.753,513.752Z" style="fill:rgb(47,46,65);fill-rule:nonzero;"/>
    </g>
    <rect x="120.701" y="773.947" width="306" height="2" style="fill:rgb(19,21,52);"/>
    <circle cx="661.701" cy="243.947" r="185" style="fill:rgb(245,245,245);"/>
    <rect x="320.701" y="140.947" width="306" height="2" style="fill:rgb(19,21,52);"/>
    <rect x="320.701" y="195.947" width="601" height="2" style="fill:rgb(19,21,52);"/>
    <g transform="matrix(1,0,0,1,-117.645,-46.9986)">
        <path d="M854.346,439.946C751.785,439.946 668.346,356.507 668.346,253.946C668.346,151.385 751.785,67.946 854.346,67.946C956.906,67.946 1040.35,151.385 1040.35,253.946C1040.35,356.507 956.906,439.946 854.346,439.946ZM854.346,69.946C752.888,69.946 670.346,152.488 670.346,253.946C670.346,355.404 752.888,437.946 854.346,437.946C955.804,437.946 1038.35,355.404 1038.35,253.946C1038.35,152.488 955.804,69.946 854.346,69.946Z" style="fill:rgb(19,21,52);fill-rule:nonzero;"/>
    </g>
    <circle cx="719.54" cy="24.42" r="24.42" style="fill:rgb(13,17,99);"/>
    <circle cx="551.398" cy="193.858" r="15.801" style="fill:rgb(255,101,132);"/>
    <circle cx="928.623" cy="194.118" r="36.087" style="fill:rgb(13,17,99);"/>
    <g transform="matrix(1,0,0,1,-117.645,-46.9986)">
        <path d="M539.009,383.507L429.51,383.507L429.51,385.507L539.009,385.507C550.16,385.507 559.336,394.683 559.336,405.834C559.336,416.984 550.16,426.16 539.009,426.16L373.318,426.16C362.167,426.16 352.991,416.984 352.991,405.834C352.991,394.683 362.167,385.507 373.318,385.507L379.51,385.507L379.51,383.507L373.318,383.507C361.07,383.507 350.991,393.585 350.991,405.834C350.991,418.082 361.07,428.16 373.318,428.16L539.009,428.16C551.257,428.16 561.336,418.082 561.336,405.834C561.336,393.585 551.257,383.507 539.009,383.507Z" style="fill:rgb(19,21,52);fill-rule:nonzero;"/>
    </g>
    <g transform="matrix(1,0,0,1,-117.645,-46.9986)">
        <path d="M539.009,452.507L429.51,452.507L429.51,454.507L539.009,454.507C550.16,454.507 559.336,463.683 559.336,474.834C559.336,485.984 550.16,495.16 539.009,495.16L373.318,495.16C362.167,495.16 352.991,485.984 352.991,474.834C352.991,463.683 362.167,454.507 373.318,454.507L379.51,454.507L379.51,452.507L373.318,452.507C361.07,452.507 350.991,462.585 350.991,474.834C350.991,487.082 361.07,497.16 373.318,497.16L539.009,497.16C551.257,497.16 561.336,487.082 561.336,474.834C561.336,462.585 551.257,452.507 539.009,452.507Z" style="fill:rgb(19,21,52);fill-rule:nonzero;"/>
    </g>
    <g transform="matrix(1,0,0,1,-117.645,-46.9986)">
        <path d="M539.009,521.507L429.51,521.507L429.51,523.507L539.009,523.507C550.16,523.507 559.336,532.683 559.336,543.834C559.336,554.984 550.16,564.16 539.009,564.16L373.318,564.16C362.167,564.16 352.991,554.984 352.991,543.834C352.991,532.683 362.167,523.507 373.318,523.507L379.51,523.507L379.51,521.507L373.318,521.507C361.07,521.507 350.991,531.585 350.991,543.834C350.991,556.082 361.07,566.16 373.318,566.16L539.009,566.16C551.257,566.16 561.336,556.082 561.336,543.834C561.336,531.585 551.257,521.507 539.009,521.507Z" style="fill:rgb(19,21,52);fill-rule:nonzero;"/>
    </g>
    <g id="be0e5baf-e5ec-4f16-9492-7d4921bb2c9b" transform="matrix(1,0,0,1,-117.645,-46.9986)">
        <path d="M391.869,378.223C388.645,378.277 386.022,380.944 386.022,384.169C386.022,387.394 388.645,390.061 391.869,390.115L417.955,390.115C417.981,390.116 418.008,390.116 418.034,390.116C421.297,390.116 423.981,387.431 423.981,384.169C423.981,380.95 421.368,378.286 418.15,378.223C418.085,378.222 418.02,378.222 417.955,378.223L391.869,378.223Z" style="fill:rgb(13,17,99);fill-rule:nonzero;"/>
    </g>
    <g id="f5faaf73-4e1d-4e3d-a937-9f255bff3911" transform="matrix(1,0,0,1,-117.645,-46.9986)">
        <path d="M391.869,448.223C388.645,448.277 386.022,450.944 386.022,454.169C386.022,457.394 388.645,460.061 391.869,460.115L417.955,460.115C417.981,460.116 418.008,460.116 418.034,460.116C421.297,460.116 423.981,457.431 423.981,454.169C423.981,450.95 421.368,448.286 418.15,448.223C418.085,448.222 418.02,448.222 417.955,448.223L391.869,448.223Z" style="fill:rgb(100,106,232);fill-rule:nonzero;"/>
    </g>
    <g id="bdcbecaa-58f8-42a6-983f-c76dd899917c" transform="matrix(1,0,0,1,-117.645,-46.9986)">
        <path d="M391.869,516.223C388.644,516.276 386.02,518.944 386.02,522.169C386.02,525.395 388.644,528.062 391.869,528.115L417.955,528.115C417.985,528.116 418.016,528.116 418.046,528.116C421.309,528.116 423.993,525.431 423.993,522.169C423.993,518.946 421.373,516.28 418.15,516.223C418.085,516.222 418.02,516.222 417.955,516.223L391.869,516.223Z" style="fill:rgb(63,61,86);fill-rule:nonzero;"/>
    </g>
    <g id="bbcd49d7-9efc-41e7-bbf8-c6009cf796dd" transform="matrix(1,0,0,1,-117.645,-46.9986)">
        <path d="M381.523,399.887C378.298,399.941 375.675,402.608 375.675,405.833C375.675,409.059 378.298,411.726 381.523,411.779L530.609,411.779C530.646,411.78 530.684,411.781 530.721,411.781C533.983,411.781 536.668,409.096 536.668,405.834C536.668,402.603 534.035,399.932 530.804,399.887C530.739,399.886 530.674,399.886 530.609,399.887L381.523,399.887Z" style="fill:rgb(245,245,245);fill-rule:nonzero;"/>
    </g>
    <g id="b24c44c6-9087-448d-956a-9230903e4c37" transform="matrix(1,0,0,1,-117.645,-46.9986)">
        <path d="M381.523,468.887C378.298,468.941 375.675,471.608 375.675,474.833C375.675,478.059 378.298,480.726 381.523,480.779L530.609,480.779C530.646,480.78 530.684,480.781 530.721,480.781C533.983,480.781 536.668,478.096 536.668,474.834C536.668,471.603 534.035,468.932 530.804,468.887C530.739,468.886 530.674,468.886 530.609,468.887L381.523,468.887Z" style="fill:rgb(245,245,245);fill-rule:nonzero;"/>
    </g>
    <g id="f49c9183-be6f-4e21-8191-a3b3cb38d75e" transform="matrix(1,0,0,1,-117.645,-46.9986)">
        <path d="M381.523,537.887C378.298,537.941 375.675,540.608 375.675,543.833C375.675,547.059 378.298,549.726 381.523,549.779L530.609,549.779C530.646,549.78 530.684,549.781 530.721,549.781C533.983,549.781 536.668,547.096 536.668,543.834C536.668,540.603 534.035,537.932 530.804,537.887C530.739,537.886 530.674,537.886 530.609,537.887L381.523,537.887Z" style="fill:rgb(245,245,245);fill-rule:nonzero;"/>
    </g>
    <g transform="matrix(1,0,0,1,-117.645,-46.9986)">
        <path d="M532.994,761.252C531.44,751.231 528.407,741.496 523.996,732.365L523.353,731.036L518.577,736.331L522.116,728.443L521.884,727.985C518.761,721.803 515.3,715.798 511.517,709.997L510.815,708.922L509.879,709.96L510.534,708.499L510.206,708.006C505.52,700.978 501.92,696.533 501.884,696.488L500.866,695.235L500.212,696.729C500.091,697.003 488.193,724.421 486.616,751.515L486.591,751.937L494.6,761.617L486.433,756.49L486.447,758.351C486.472,761.536 486.688,764.715 487.096,767.874C487.455,770.59 487.879,773.243 488.366,775.831C489.138,775.855 489.889,776.089 490.537,776.508C489.973,773.616 489.487,770.644 489.078,767.592C488.762,765.155 488.564,762.68 488.484,760.211L504.281,770.129L488.638,751.22C490.062,728.313 498.902,705.234 501.384,699.142C502.716,700.87 505.229,704.224 508.235,708.703L502.771,720.885L510.561,712.247C513.939,717.505 517.05,722.929 519.883,728.499L511.468,747.257L522.845,734.642C526.819,743.187 529.57,752.249 531.016,761.561C533.007,776.603 532.619,791.051 529.921,802.248C527.338,812.973 522.785,819.565 517.429,820.335C516.326,820.487 515.205,820.42 514.128,820.139C513.265,820.752 512.226,821.069 511.168,821.042L510.876,821.042C512.537,821.964 514.4,822.465 516.299,822.499C516.769,822.499 517.238,822.465 517.702,822.398C523.999,821.494 529.028,814.517 531.861,802.755C534.619,791.306 535.023,776.575 532.994,761.252Z" style="fill:rgb(19,21,52);fill-rule:nonzero;"/>
    </g>
    <g transform="matrix(1,0,0,1,-117.645,-46.9986)">
        <path d="M515.371,821.708C507.134,821.708 495.258,817.177 483.479,808.929C481.745,807.705 480.089,806.374 478.522,804.943L477.202,803.738L482.19,802.302L475.548,802.059L475.268,801.765C462.818,788.726 455.07,770.308 454.993,770.124L454.388,768.669L455.962,768.74C456.119,768.747 459.861,768.924 465.486,769.722L465.837,769.771L465.837,769.769L467.07,769.956C471.664,770.654 476.214,771.61 480.7,772.82L481.179,772.95L482.675,776.637L482.448,773.33L483.821,773.727C490.329,775.605 496.51,778.471 502.149,782.224C520.062,794.768 529.975,810.445 524.735,817.928C522.944,820.485 519.647,821.707 515.371,821.708ZM481.228,804.66C482.322,805.587 483.46,806.469 484.628,807.292C501.035,818.781 518.651,823.126 523.096,816.781C527.54,810.436 517.431,795.366 501.021,783.876C495.959,780.508 490.444,777.877 484.641,776.062L485.528,788.979L479.7,774.623C475.861,773.604 471.935,772.767 468.003,772.127L468.647,781.502L464.636,771.622C461.528,771.195 459.023,770.964 457.499,770.846C459.577,775.408 466.442,789.497 476.436,800.09L494.766,800.761L481.228,804.66Z" style="fill:rgb(19,21,52);fill-rule:nonzero;"/>
    </g>
</svg>
