<?xml version="1.0" encoding="UTF-8" standalone="no"?>
<!DOCTYPE svg PUBLIC "-//W3C//DTD SVG 1.1//EN" "http://www.w3.org/Graphics/SVG/1.1/DTD/svg11.dtd">
<svg width="100%" height="100%" viewBox="0 0 766 537" version="1.1" xmlns="http://www.w3.org/2000/svg" xmlns:xlink="http://www.w3.org/1999/xlink" xml:space="preserve" xmlns:serif="http://www.serif.com/" style="fill-rule:evenodd;clip-rule:evenodd;stroke-linejoin:round;stroke-miterlimit:2;">
    <g transform="matrix(1,0,0,1,-217.08,-181.612)">
        <path d="M975.748,531.162L445.253,531.162C441.32,531.158 438.086,527.923 438.081,523.99L438.081,195.42L982.92,195.42L982.92,523.99C982.915,527.923 979.68,531.158 975.748,531.162Z" style="fill:rgb(245,245,245);fill-rule:nonzero;"/>
    </g>
    <g transform="matrix(1,0,0,1,-217.08,-181.612)">
        <path d="M960.192,510.629L460.809,510.629C456.833,510.625 453.563,507.354 453.559,503.379L453.559,232.79C453.563,228.814 456.833,225.544 460.809,225.54L960.192,225.54C964.168,225.544 967.438,228.814 967.442,232.79L967.442,503.379C967.438,507.355 964.168,510.625 960.192,510.629Z" style="fill:white;fill-rule:nonzero;"/>
    </g>
    <g transform="matrix(1,0,0,1,-217.08,-181.612)">
        <path d="M982.687,205.566L437.849,205.566L437.849,188.784C437.853,184.851 441.088,181.616 445.021,181.612L975.515,181.612C979.448,181.616 982.683,184.851 982.687,188.784L982.687,205.566Z" style="fill:rgb(106,106,232);fill-rule:nonzero;"/>
    </g>
    <circle cx="238.365" cy="12.237" r="4.283" style="fill:white;"/>
    <circle cx="254.623" cy="12.237" r="4.283" style="fill:white;"/>
    <circle cx="270.882" cy="12.237" r="4.283" style="fill:white;"/>
    <rect x="287.803" y="92.449" width="51.47" height="22.782" style="fill:rgb(245,245,245);"/>
    <rect x="390.742" y="139.7" width="51.47" height="22.782" style="fill:rgb(245,245,245);"/>
    <rect x="287.803" y="210.576" width="51.47" height="22.782" style="fill:rgb(106,106,232);"/>
    <rect x="390.742" y="257.826" width="51.47" height="22.782" style="fill:rgb(106,106,232);"/>
    <rect x="647.246" y="281.452" width="51.47" height="22.782" style="fill:rgb(106,106,232);"/>
    <rect x="595.776" y="186.95" width="51.47" height="22.782" style="fill:rgb(245,245,245);"/>
    <rect x="442.212" y="186.95" width="102.939" height="22.782" style="fill:rgb(106,106,232);"/>
    <rect x="442.212" y="67.98" width="102.939" height="22.782" style="fill:rgb(106,106,232);"/>
    <g transform="matrix(1,0,0,1,-217.08,-181.612)">
        <path d="M453.414,225.122L453.414,511.158L968.109,511.158L968.109,225.122L453.414,225.122ZM966.422,248.818L916.809,248.818L916.809,226.81L966.422,226.81L966.422,248.818ZM660.305,414.688L660.305,392.68L761.218,392.68L761.218,414.688L660.305,414.688ZM761.218,416.375L761.218,438.383L660.305,438.383L660.305,416.375L761.218,416.375ZM761.218,321.593L761.218,343.601L660.305,343.601L660.305,321.593L761.218,321.593ZM660.305,319.905L660.305,297.897L761.218,297.897L761.218,319.905L660.305,319.905ZM660.305,367.296L660.305,345.288L761.218,345.288L761.218,367.296L660.305,367.296ZM761.218,368.984L761.218,390.992L660.305,390.992L660.305,368.984L761.218,368.984ZM658.617,343.601L609.004,343.601L609.004,321.593L658.617,321.593L658.617,343.601ZM658.617,345.288L658.617,367.296L609.004,367.296L609.004,345.288L658.617,345.288ZM658.617,368.984L658.617,390.992L609.004,390.992L609.004,368.984L658.617,368.984ZM658.617,392.68L658.617,414.688L609.004,414.688L609.004,392.68L658.617,392.68ZM762.906,392.68L812.519,392.68L812.519,414.688L762.906,414.688L762.906,392.68ZM762.906,390.992L762.906,368.984L812.519,368.984L812.519,390.992L762.906,390.992ZM762.906,367.296L762.906,345.288L812.519,345.288L812.519,367.296L762.906,367.296ZM762.906,343.601L762.906,321.593L812.519,321.593L812.519,343.601L762.906,343.601ZM762.906,319.905L762.906,297.897L812.519,297.897L812.519,319.905L762.906,319.905ZM762.906,296.209L762.906,274.201L812.519,274.201L812.519,296.209L762.906,296.209ZM761.218,296.209L660.305,296.209L660.305,274.201L761.218,274.201L761.218,296.209ZM658.617,296.209L609.004,296.209L609.004,274.201L658.617,274.201L658.617,296.209ZM658.617,297.897L658.617,319.905L609.004,319.905L609.004,297.897L658.617,297.897ZM607.317,319.905L557.703,319.905L557.703,297.897L607.317,297.897L607.317,319.905ZM607.317,321.593L607.317,343.601L557.703,343.601L557.703,321.593L607.317,321.593ZM607.317,345.288L607.317,367.296L557.703,367.296L557.703,345.288L607.317,345.288ZM607.317,368.984L607.317,390.992L557.703,390.992L557.703,368.984L607.317,368.984ZM607.317,392.68L607.317,414.688L557.703,414.688L557.703,392.68L607.317,392.68ZM607.317,416.375L607.317,438.383L557.703,438.383L557.703,416.375L607.317,416.375ZM609.004,416.375L658.617,416.375L658.617,438.383L609.004,438.383L609.004,416.375ZM658.617,440.071L658.617,462.079L609.004,462.079L609.004,440.071L658.617,440.071ZM660.305,440.071L761.218,440.071L761.218,462.079L660.305,462.079L660.305,440.071ZM762.906,440.071L812.519,440.071L812.519,462.079L762.906,462.079L762.906,440.071ZM762.906,438.383L762.906,416.375L812.519,416.375L812.519,438.383L762.906,438.383ZM814.207,416.375L863.82,416.375L863.82,438.383L814.206,438.383L814.207,416.375ZM814.207,414.688L814.207,392.68L863.82,392.68L863.82,414.688L814.207,414.688ZM814.207,390.992L814.207,368.984L863.82,368.984L863.82,390.992L814.207,390.992ZM814.207,367.296L814.207,345.288L863.82,345.288L863.82,367.296L814.207,367.296ZM814.207,343.601L814.207,321.593L863.82,321.593L863.82,343.601L814.207,343.601ZM814.207,319.905L814.207,297.897L863.82,297.897L863.82,319.905L814.207,319.905ZM814.207,296.209L814.207,274.201L863.82,274.201L863.82,296.209L814.207,296.209ZM814.207,272.514L814.207,250.506L863.82,250.506L863.82,272.514L814.207,272.514ZM812.519,272.514L762.906,272.514L762.906,250.506L812.519,250.506L812.519,272.514ZM761.218,272.514L660.305,272.514L660.305,250.506L761.218,250.506L761.218,272.514ZM658.617,272.514L609.004,272.514L609.004,250.506L658.617,250.506L658.617,272.514ZM607.317,272.514L557.703,272.514L557.703,250.506L607.317,250.506L607.317,272.514ZM607.317,274.201L607.317,296.209L557.703,296.209L557.703,274.201L607.317,274.201ZM556.015,296.209L506.402,296.209L506.402,274.201L556.015,274.201L556.015,296.209ZM556.015,297.897L556.015,319.905L506.402,319.905L506.402,297.897L556.015,297.897ZM556.015,321.593L556.015,343.601L506.402,343.601L506.402,321.593L556.015,321.593ZM556.015,345.288L556.015,367.296L506.402,367.296L506.402,345.288L556.015,345.288ZM556.015,368.984L556.015,390.992L506.402,390.992L506.402,368.984L556.015,368.984ZM556.015,392.68L556.015,414.688L506.402,414.688L506.402,392.68L556.015,392.68ZM556.015,416.375L556.015,438.383L506.402,438.383L506.402,416.375L556.015,416.375ZM556.015,440.071L556.015,462.079L506.402,462.079L506.402,440.071L556.015,440.071ZM557.703,440.071L607.317,440.071L607.317,462.079L557.703,462.079L557.703,440.071ZM607.317,463.766L607.317,485.775L557.703,485.775L557.703,463.766L607.317,463.766ZM609.004,463.766L658.617,463.766L658.617,485.775L609.004,485.775L609.004,463.766ZM660.305,463.766L761.218,463.766L761.218,485.775L660.305,485.775L660.305,463.766ZM762.906,463.766L812.519,463.766L812.519,485.775L762.906,485.775L762.906,463.766ZM814.207,463.766L863.82,463.766L863.82,485.775L814.206,485.775L814.207,463.766ZM814.207,462.079L814.207,440.071L863.82,440.071L863.82,462.079L814.207,462.079ZM865.508,440.071L915.121,440.071L915.121,462.079L865.508,462.079L865.508,440.071ZM865.508,438.383L865.508,416.375L915.121,416.375L915.121,438.383L865.508,438.383ZM865.508,414.688L865.508,392.68L915.121,392.68L915.121,414.688L865.508,414.688ZM865.508,390.992L865.508,368.984L915.121,368.984L915.121,390.992L865.508,390.992ZM865.508,367.296L865.508,345.288L915.121,345.288L915.121,367.296L865.508,367.296ZM865.508,343.601L865.508,321.593L915.121,321.593L915.121,343.601L865.508,343.601ZM865.508,319.905L865.508,297.897L915.121,297.897L915.121,319.905L865.508,319.905ZM865.508,296.209L865.508,274.201L915.121,274.201L915.121,296.209L865.508,296.209ZM865.508,272.514L865.508,250.506L915.121,250.506L915.121,272.514L865.508,272.514ZM865.508,248.818L865.508,226.81L915.121,226.81L915.121,248.818L865.508,248.818ZM863.82,248.818L814.206,248.818L814.206,226.81L863.82,226.81L863.82,248.818ZM812.519,248.818L762.906,248.818L762.906,226.81L812.519,226.81L812.519,248.818ZM761.218,248.818L660.305,248.818L660.305,226.81L761.218,226.81L761.218,248.818ZM658.617,248.818L609.004,248.818L609.004,226.81L658.617,226.81L658.617,248.818ZM607.317,248.818L557.703,248.818L557.703,226.81L607.317,226.81L607.317,248.818ZM556.015,248.818L506.402,248.818L506.402,226.81L556.015,226.81L556.015,248.818ZM556.015,250.506L556.015,272.514L506.402,272.514L506.402,250.506L556.015,250.506ZM504.715,272.514L455.102,272.514L455.102,250.506L504.715,250.506L504.715,272.514ZM504.715,274.201L504.715,296.209L455.102,296.209L455.102,274.201L504.715,274.201ZM504.715,297.897L504.715,319.905L455.102,319.905L455.102,297.897L504.715,297.897ZM504.715,321.593L504.715,343.601L455.102,343.601L455.102,321.593L504.715,321.593ZM504.715,345.288L504.715,367.296L455.102,367.296L455.102,345.288L504.715,345.288ZM504.715,368.984L504.715,390.992L455.102,390.992L455.102,368.984L504.715,368.984ZM504.715,392.68L504.715,414.688L455.102,414.688L455.102,392.68L504.715,392.68ZM504.715,416.375L504.715,438.383L455.102,438.383L455.102,416.375L504.715,416.375ZM504.715,440.071L504.715,462.079L455.102,462.079L455.102,440.071L504.715,440.071ZM504.715,463.766L504.715,485.775L455.102,485.775L455.102,463.766L504.715,463.766ZM506.402,463.766L556.015,463.766L556.015,485.775L506.402,485.775L506.402,463.766ZM556.015,487.463L556.015,509.47L506.402,509.47L506.402,487.463L556.015,487.463ZM557.703,487.463L607.317,487.463L607.317,509.47L557.703,509.47L557.703,487.463ZM609.004,487.463L658.617,487.463L658.617,509.47L609.004,509.47L609.004,487.463ZM660.305,487.463L761.218,487.463L761.218,509.47L660.305,509.47L660.305,487.463ZM762.906,487.463L812.519,487.463L812.519,509.47L762.906,509.47L762.906,487.463ZM814.207,487.463L863.82,487.463L863.82,509.47L814.206,509.47L814.207,487.463ZM865.508,487.463L915.121,487.463L915.121,509.47L865.508,509.47L865.508,487.463ZM865.508,485.775L865.508,463.766L915.121,463.766L915.121,485.775L865.508,485.775ZM916.809,463.766L966.422,463.766L966.422,485.775L916.809,485.775L916.809,463.766ZM916.809,462.079L916.809,440.071L966.422,440.071L966.422,462.079L916.809,462.079ZM916.809,438.383L916.809,416.375L966.422,416.375L966.422,438.383L916.809,438.383ZM916.809,414.688L916.809,392.68L966.422,392.68L966.422,414.688L916.809,414.688ZM916.809,390.992L916.809,368.984L966.422,368.984L966.422,390.992L916.809,390.992ZM916.809,367.296L916.809,345.288L966.422,345.288L966.422,367.296L916.809,367.296ZM916.809,343.601L916.809,321.593L966.422,321.593L966.422,343.601L916.809,343.601ZM916.809,319.905L916.809,297.897L966.422,297.897L966.422,319.905L916.809,319.905ZM916.809,296.209L916.809,274.201L966.422,274.201L966.422,296.209L916.809,296.209ZM916.809,272.514L916.809,250.506L966.422,250.506L966.422,272.514L916.809,272.514ZM504.715,226.81L504.715,248.818L455.102,248.818L455.102,226.81L504.715,226.81ZM455.102,487.463L504.715,487.463L504.715,509.47L455.102,509.47L455.102,487.463ZM916.809,509.47L916.809,487.463L966.422,487.463L966.422,509.47L916.809,509.47Z" style="fill:rgb(230,230,230);fill-rule:nonzero;"/>
    </g>
    <g transform="matrix(1,0,0,1,-217.08,-181.612)">
        <path d="M313.306,380.104C313.306,380.104 287.268,374.104 272.947,385.104C258.626,396.104 291.174,421.104 291.174,421.104L313.306,380.104Z" style="fill:rgb(13,17,99);fill-rule:nonzero;"/>
    </g>
    <g transform="matrix(1,0,0,1,-217.08,-181.612)">
        <path d="M340.233,523.587C339.801,522.447 339.579,521.238 339.579,520.019C339.579,515.202 343.04,511.028 347.773,510.137L353.035,474.791L366.863,487.186L359.746,518.85C359.795,519.252 359.819,519.656 359.819,520.061C359.819,525.607 355.255,530.171 349.709,530.171C345.495,530.171 341.703,527.536 340.233,523.587L340.233,523.587Z" style="fill:rgb(255,184,184);fill-rule:nonzero;"/>
    </g>
    <path d="M68.648,525.464L80.881,524.652L83.571,477.082L65.517,478.28L68.648,525.464Z" style="fill:rgb(255,184,184);fill-rule:nonzero;"/>
    <g transform="matrix(-1,-7.65714e-16,7.65714e-16,-1,388.102,1238.2)">
        <path d="M283.326,702.463L321.857,702.463L321.857,717.35L298.213,717.35C290.046,717.35 283.326,710.629 283.326,702.463L283.326,702.463Z" style="fill:rgb(47,46,65);fill-rule:nonzero;"/>
    </g>
    <path d="M89.789,508.53L101.29,512.775L123.139,470.433L106.164,464.168L89.789,508.53Z" style="fill:rgb(255,184,184);fill-rule:nonzero;"/>
    <g transform="matrix(-0.938128,-0.346289,0.346289,-0.938128,163.015,1285.5)">
        <path d="M301.848,692.156L340.379,692.156L340.379,707.043L316.735,707.043C308.569,707.043 301.848,700.323 301.848,692.156L301.848,692.156Z" style="fill:rgb(47,46,65);fill-rule:nonzero;"/>
    </g>
    <g transform="matrix(1,0,0,1,-217.08,-181.612)">
        <path d="M340.311,507.391C340.311,507.391 352.7,514.062 348.888,540.745L345.076,641.76L324.017,687.809L305.91,683.044L317.44,645.572L302.192,579.817L300.192,699.245L283.039,702.104L258.356,503.579L289.804,489.285L340.311,507.391Z" style="fill:rgb(13,17,99);fill-rule:nonzero;"/>
    </g>
    <circle cx="78.95" cy="162.594" r="24.561" style="fill:rgb(255,184,184);"/>
    <g transform="matrix(1,0,0,1,-217.08,-181.612)">
        <path d="M310.293,375.405L297.904,395.417L279.798,377.311L245.948,401.006C243.511,402.707 242.563,405.892 243.675,408.649C248.881,421.524 262.215,459.582 258.356,503.579C258.356,503.579 284.086,496.908 310.769,504.532C337.452,512.156 344.123,509.297 344.123,509.297C344.123,509.297 337.452,460.696 341.264,450.213C344.426,441.518 350.866,412.496 352.971,402.852C353.377,400.987 352.51,399.062 350.844,398.131L310.293,375.405Z" style="fill:rgb(106,106,232);fill-rule:nonzero;"/>
    </g>
    <g transform="matrix(1,0,0,1,-217.08,-181.612)">
        <path d="M349.862,398.247C352.02,397.939 354.093,399.295 354.675,401.396L370.806,459.649L366.994,494.908L348.888,492.049L350.794,467.272L337.452,435.824L346.259,401.477C346.696,399.774 348.122,398.496 349.862,398.247Z" style="fill:rgb(106,106,232);fill-rule:nonzero;"/>
    </g>
    <g transform="matrix(1,0,0,1,-217.08,-181.612)">
        <path d="M277.038,309.728C280.373,304.069 286.623,300.743 293.18,301.14C296.548,301.563 299.836,302.483 302.934,303.871L318.99,310.134C323.145,311.755 327.695,313.74 329.498,317.819C331.172,321.605 329.923,325.977 328.659,329.918L322.652,348.654C321.987,344.414 320.845,340.262 319.248,336.278C317.503,332.36 314.743,328.748 310.928,326.791C306.757,324.651 301.842,324.696 297.16,324.921C290.529,325.24 283.319,326.084 278.608,330.761C276.107,333.417 274.411,336.729 273.719,340.31C273.036,343.873 272.693,347.492 272.693,351.119C269.974,346.445 267.684,341.535 265.85,336.448C264.341,332.66 263.482,328.645 263.307,324.572C263.149,320.465 264.513,316.441 267.135,313.276C269.848,310.244 274.268,308.607 278.155,309.807" style="fill:rgb(19,21,52);fill-rule:nonzero;"/>
    </g>
    <g transform="matrix(1,0,0,1,-217.08,-181.612)">
        <path d="M263.379,537.587C263.812,536.447 264.033,535.238 264.033,534.019C264.033,529.202 260.573,525.028 255.839,524.137L250.577,488.791L236.749,501.186L243.866,532.85C243.818,533.252 243.793,533.656 243.793,534.061C243.793,539.607 248.357,544.171 253.904,544.171C258.118,544.171 261.909,541.536 263.379,537.587L263.379,537.587Z" style="fill:rgb(255,184,184);fill-rule:nonzero;"/>
    </g>
    <g transform="matrix(1,0,0,1,-217.08,-181.612)">
        <path d="M246.295,400.669C243.333,401.162 241.095,403.674 240.945,406.674L235.485,515.874L255.497,515.874L262.168,457.743L253.678,405.957C253.172,402.87 250.478,400.581 247.35,400.581C246.996,400.581 246.644,400.61 246.295,400.669Z" style="fill:rgb(106,106,232);fill-rule:nonzero;"/>
    </g>
    <path d="M171.738,536.777L0,536.777L0,534.671L172.12,534.671L171.738,536.777Z" style="fill:rgb(204,204,204);fill-rule:nonzero;"/>
</svg>
